<?xml version="1.0" standalone="no"?>
<!DOCTYPE svg PUBLIC "-//W3C//DTD SVG 20010904//EN"
 "http://www.w3.org/TR/2001/REC-SVG-20010904/DTD/svg10.dtd">
<svg version="1.0" xmlns="http://www.w3.org/2000/svg"
 width="512.000000pt" height="512.000000pt" viewBox="0 0 512.000000 512.000000"
 preserveAspectRatio="xMidYMid meet">
<metadata>
Created by potrace 1.14, written by Peter Selinger 2001-2017
</metadata>
<g transform="translate(0.000000,512.000000) scale(0.100000,-0.100000)"
fill="#000000" stroke="none">
<path d="M3040 4440 l0 -200 -175 0 c-161 0 -177 -2 -195 -20 -11 -11 -22 -30
-25 -42 -3 -13 -4 -535 -3 -1160 3 -1076 4 -1138 21 -1155 15 -16 41 -18 197
-21 l180 -3 0 -200 0 -199 80 0 80 0 0 200 0 200 173 0 c154 0 175 2 197 20
l25 19 3 1143 c2 856 -1 1150 -9 1171 -7 16 -23 33 -36 38 -13 5 -98 9 -189 9
l-164 0 0 200 0 200 -80 0 -80 0 0 -200z"/>
<path d="M800 3961 l0 -200 -181 -3 c-179 -3 -180 -3 -199 -28 -19 -24 -20
-56 -20 -1160 0 -624 3 -1145 6 -1158 12 -44 49 -52 229 -52 l165 0 0 -200 0
-200 80 0 80 0 0 200 0 200 165 0 c180 0 220 9 230 53 3 12 4 536 3 1164 -3
1081 -4 1143 -21 1160 -15 16 -41 18 -197 21 l-180 3 0 200 0 199 -80 0 -80 0
0 -199z"/>
<path d="M4160 3560 l0 -200 -165 0 c-172 0 -215 -8 -229 -45 -8 -21 -8 -2273
0 -2303 12 -44 49 -52 229 -52 l165 0 0 -200 0 -200 80 0 80 0 0 200 0 200
165 0 c172 0 215 8 229 45 3 9 6 527 6 1151 0 1228 2 1183 -52 1198 -13 3 -96
6 -185 6 l-163 0 0 200 0 200 -80 0 -80 0 0 -200z"/>
<path d="M1920 3400 l0 -200 -172 0 c-155 0 -176 -2 -198 -20 l-25 -19 0
-1160 c0 -1100 1 -1161 18 -1178 15 -16 41 -18 197 -21 l180 -3 0 -200 0 -199
80 0 80 0 0 200 0 200 173 0 c154 0 175 2 197 20 l25 19 0 1160 c0 1100 -1
1161 -18 1178 -15 16 -41 18 -197 21 l-180 3 0 200 0 199 -80 0 -80 0 0 -200z"/>
</g>
</svg>
